<svg xmlns="http://www.w3.org/2000/svg" viewBox="0 0 128 128">
  <defs>
    <linearGradient id="bg" x1="18" y1="10" x2="112" y2="120" gradientUnits="userSpaceOnUse">
      <stop offset="0" stop-color="#10283a"/>
      <stop offset="0.56" stop-color="#176b87"/>
      <stop offset="1" stop-color="#26a269"/>
    </linearGradient>
    <linearGradient id="shine" x1="36" y1="20" x2="92" y2="108" gradientUnits="userSpaceOnUse">
      <stop offset="0" stop-color="#ffffff" stop-opacity="0.42"/>
      <stop offset="1" stop-color="#ffffff" stop-opacity="0"/>
    </linearGradient>
  </defs>
  <rect width="128" height="128" rx="28" fill="url(#bg)"/>
  <path d="M22 36c0-7.7 6.3-14 14-14h56c7.7 0 14 6.3 14 14v36c0 7.7-6.3 14-14 14H36c-7.7 0-14-6.3-14-14V36Z" fill="#0b1520" opacity="0.58"/>
  <path d="M52 42.6c0-4.1 4.5-6.7 8.1-4.6l25 14.4c3.6 2.1 3.6 7.3 0 9.4l-25 14.4c-3.6 2.1-8.1-.5-8.1-4.6v-29Z" fill="#ffffff"/>
  <path d="M64 73v25" stroke="#ffffff" stroke-width="12" stroke-linecap="round"/>
  <path d="M42 88l22 22 22-22" fill="none" stroke="#ffffff" stroke-width="12" stroke-linecap="round" stroke-linejoin="round"/>
  <path d="M22 36c0-7.7 6.3-14 14-14h56c7.7 0 14 6.3 14 14v12c-22.3-10.1-50.2-12.9-84-4.3V36Z" fill="url(#shine)"/>
</svg>
